<?xml version="1.0" encoding="utf-8"?>
<svg width="201px" height="61px" viewbox="0 0 201 61" version="1.1" xmlns:xlink="http://www.w3.org/1999/xlink" xmlns="http://www.w3.org/2000/svg">
  <defs>
    <path d="M0 0L201 0L201 61L0 61L0 0L0 0Z" id="path_1" />
    <clipPath id="mask_1">
      <use xlink:href="#path_1" />
    </clipPath>
  </defs>
  <g id="logo">
    <g id="logo">
      <path d="M0 0L201 0L201 61L0 61L0 0L0 0Z" id="Background" fill="none" fill-rule="evenodd" stroke="none" />
      <g id="Mask-group">
        <path d="M0 0L201 0L201 61L0 61L0 0L0 0Z" id="path_1" fill="none" fill-rule="evenodd" stroke="none" />
        <g clip-path="url(#mask_1)">
          <g id="Group" transform="translate(0.5 0.5)">
            <g id="Made-with-❤️-by-Alexandrus21" transform="translate(54.683594 50.078125)">
              <path d="M55.9521 0.114746C55.682 0.03825 55.4004 0 55.1074 0C54.8567 0 54.6207 0.0244141 54.3994 0.0732422C54.1781 0.12207 53.9689 0.1945 53.772 0.290527C53.5751 0.386555 53.3863 0.503742 53.2056 0.64209C53.0249 0.780437 52.8483 0.9375 52.6758 1.11329C52.5033 0.9375 52.3267 0.780437 52.146 0.64209C51.9653 0.503742 51.7765 0.387371 51.5796 0.292969C51.3827 0.198566 51.1735 0.126141 50.9521 0.0756836C50.7308 0.0252304 50.4948 0 50.2441 0C49.9512 0 49.6688 0.03825 49.397 0.114746C49.1252 0.191242 48.8721 0.297852 48.6377 0.43457C48.4033 0.571289 48.1885 0.737305 47.9932 0.932613C47.7979 1.12793 47.6318 1.34277 47.4951 1.57714C47.3584 1.81152 47.2518 2.06462 47.1753 2.33643C47.0988 2.60824 47.0605 2.89063 47.0605 3.18359C47.0605 3.61654 47.1395 4.02343 47.2974 4.4043C47.4553 4.78516 47.6872 5.12858 47.9932 5.43457L52.6758 10.1172L57.3584 5.43457C57.6644 5.12858 57.8963 4.78516 58.0542 4.4043C58.2121 4.02343 58.291 3.61654 58.291 3.18359C58.291 2.89063 58.2528 2.60905 58.1763 2.33886C58.0998 2.06868 57.9923 1.81559 57.854 1.57959C57.7157 1.34359 57.5497 1.12874 57.356 0.935055C57.1623 0.741371 56.9474 0.575359 56.7114 0.437012C56.4754 0.298668 56.2223 0.191242 55.9521 0.114746L55.9521 0.114746ZM56.8603 4.93652L52.6758 9.12598L48.4912 4.93652C48.2568 4.70215 48.077 4.43441 47.9517 4.1333C47.8264 3.8322 47.7637 3.51563 47.7637 3.18359C47.7637 2.8418 47.8288 2.52034 47.959 2.21923C48.0892 1.91813 48.2666 1.65527 48.4912 1.43066C48.7158 1.20606 48.9787 1.02865 49.2798 0.898438C49.5809 0.76823 49.9023 0.703125 50.2441 0.703125C50.511 0.703125 50.7495 0.736492 50.9595 0.803223C51.1694 0.869953 51.3631 0.960285 51.5405 1.07421C51.7179 1.18815 51.8864 1.3208 52.0459 1.47216C52.2054 1.62353 52.3682 1.78548 52.5342 1.958L52.6758 2.1045L52.832 1.94336C52.998 1.77409 53.16 1.61377 53.3179 1.46241C53.4758 1.31104 53.6426 1.1792 53.8184 1.06689C53.9941 0.95459 54.1862 0.865887 54.3945 0.800781C54.6028 0.735676 54.8405 0.703125 55.1074 0.703125C55.4492 0.703125 55.7707 0.76823 56.0718 0.898438C56.3729 1.02865 56.6357 1.20606 56.8603 1.43066C57.085 1.65527 57.2624 1.91813 57.3926 2.21923C57.5228 2.52034 57.5879 2.8418 57.5879 3.18359C57.5879 3.51563 57.5252 3.8322 57.3999 4.1333C57.2746 4.43441 57.0947 4.70215 56.8603 4.93652L56.8603 4.93652ZM32.8809 2.67579C32.7767 2.57487 32.7246 2.43978 32.7246 2.2705C32.7246 2.10124 32.7767 1.96615 32.8809 1.86523C32.985 1.76432 33.1185 1.71386 33.2812 1.71386C33.444 1.71386 33.5775 1.76432 33.6816 1.86523C33.7858 1.96615 33.8379 2.10124 33.8379 2.2705C33.8379 2.43978 33.7858 2.57487 33.6816 2.67579C33.5775 2.77669 33.444 2.82714 33.2812 2.82714C33.1185 2.82714 32.985 2.77669 32.8809 2.67579L32.8809 2.67579ZM127.27 7.83691L129.096 6.17675C130.184 5.18718 130.727 4.34082 130.727 3.6377C130.727 2.81087 130.288 2.39746 129.409 2.39746C128.979 2.39746 128.654 2.49837 128.432 2.7002C128.211 2.90202 128.1 3.18196 128.1 3.54004L127.27 3.54004C127.27 3.02571 127.449 2.59277 127.807 2.24121C128.165 1.88965 128.703 1.71386 129.419 1.71386C130.109 1.71386 130.64 1.88639 131.01 2.23145C131.382 2.5765 131.567 3.04525 131.567 3.6377C131.567 4.139 131.383 4.65006 131.015 5.17089C130.647 5.69173 130.157 6.23535 129.545 6.80175L128.647 7.64161L131.665 7.64161L131.665 8.42286L127.27 8.42286L127.27 7.83691L127.27 7.83691ZM0 8.42286L0 1.81152L0.878906 1.81152L3.09571 5.59082L5.32227 1.81152L6.20118 1.81152L6.20118 8.42286L5.3711 8.42286L5.3711 3.09082L3.37891 6.56739L2.80273 6.56739L0.830078 3.15918L0.830078 8.42286L0 8.42286L0 8.42286ZM12.7637 5.95214C12.7637 6.70084 12.9655 7.31608 13.3691 7.79786C13.7728 8.27962 14.2871 8.5205 14.9121 8.5205C15.5306 8.5205 16.0286 8.21126 16.4062 7.59277L16.4941 8.42286L17.1777 8.42286L17.1777 1.81152L16.3965 1.81152L16.3965 4.30175C16.0189 3.72884 15.5241 3.44239 14.9121 3.44239C14.2806 3.44239 13.7646 3.6735 13.3643 4.13575C12.9639 4.59798 12.7637 5.20345 12.7637 5.95214L12.7637 5.95214ZM38.3887 8.42286L38.3887 1.81152L39.1699 1.81152L39.1699 4.33105C39.5606 3.73861 40.0814 3.44239 40.7324 3.44239C41.3444 3.44239 41.8229 3.63444 42.168 4.01855C42.513 4.40267 42.6855 4.92676 42.6855 5.59082L42.6855 8.42286L41.9043 8.42286L41.9043 5.59082C41.8978 5.2067 41.7871 4.86654 41.5723 4.57032C41.3574 4.27409 41.0156 4.12598 40.5469 4.12598C40.2474 4.12598 39.9886 4.21875 39.7705 4.4043C39.5524 4.58984 39.3978 4.79655 39.3066 5.02441C39.2155 5.25228 39.1699 5.47689 39.1699 5.69825L39.1699 8.42286L38.3887 8.42286L38.3887 8.42286ZM65.5029 8.42286L65.5029 1.81152L66.2842 1.81152L66.2842 4.28223C66.6357 3.72233 67.1305 3.44239 67.7685 3.44239C68.3935 3.44239 68.9078 3.67839 69.3115 4.15039C69.7152 4.62239 69.917 5.23275 69.917 5.98145C69.917 6.72363 69.7119 7.33236 69.3018 7.80761C68.8916 8.28288 68.3805 8.5205 67.7685 8.5205C67.1175 8.5205 66.613 8.23405 66.2549 7.66114L66.1865 8.42286L65.5029 8.42286L65.5029 8.42286ZM78.1201 8.42286L80.7471 1.81152L81.6162 1.81152L84.2725 8.42286L83.3935 8.42286L82.7197 6.68457L79.624 6.68457L78.9502 8.42286L78.1201 8.42286L78.1201 8.42286ZM85.1514 1.81152L85.1514 8.42286L86.1514 8.42286L86.1514 1.81152L85.1514 1.81152L85.1514 1.81152ZM108.813 7.79786C108.41 7.31608 108.208 6.70084 108.208 5.95214C108.208 5.20345 108.408 4.59798 108.808 4.13575C109.209 3.6735 109.725 3.44239 110.356 3.44239C110.968 3.44239 111.463 3.72884 111.84 4.30175L111.84 1.81152L112.622 1.81152L112.622 8.42286L111.938 8.42286L111.85 7.59277C111.473 8.21126 110.975 8.5205 110.356 8.5205C109.732 8.5205 109.217 8.27962 108.813 7.79786L108.813 7.79786ZM132.739 1.81152L132.739 2.59277L133.813 2.59277L133.813 8.42286L134.594 8.42286L134.594 1.81152L132.739 1.81152L132.739 1.81152ZM34.5508 3.54004L34.5508 4.27246L35.4297 4.27246L35.4297 6.69434C35.4297 7.20215 35.5469 7.61719 35.7812 7.93945C36.0156 8.26172 36.3411 8.42286 36.7578 8.42286L37.5098 8.42286L37.5098 7.63184L36.7871 7.63184C36.5592 7.63184 36.4062 7.5293 36.3281 7.32421C36.25 7.11914 36.2109 6.81152 36.2109 6.40136L36.2109 4.27246L37.5098 4.27246L37.5098 3.54004L36.2109 3.54004L36.2109 2.36816L35.4297 2.36816L35.4297 3.54004L34.5508 3.54004L34.5508 3.54004ZM82.4072 5.90332L81.167 2.75879L79.9268 5.90332L82.4072 5.90332L82.4072 5.90332ZM7.88086 7.79786C7.47721 7.31608 7.27539 6.70084 7.27539 5.95214C7.27539 5.20345 7.47558 4.59798 7.87598 4.13575C8.27637 3.6735 8.79231 3.44239 9.42381 3.44239C10.0553 3.44239 10.5566 3.74186 10.9277 4.34082L11.0059 3.54004L11.6894 3.54004L11.6894 8.42286L11.0059 8.42286L10.918 7.59277C10.5404 8.21126 10.0423 8.5205 9.42381 8.5205C8.79882 8.5205 8.2845 8.27962 7.88086 7.79786L7.88086 7.79786ZM18.8867 7.80761C18.4635 7.33236 18.2519 6.71387 18.2519 5.95214C18.2519 5.19043 18.457 4.58171 18.8672 4.12598C19.2773 3.67025 19.8405 3.44239 20.5566 3.44239C21.2533 3.44239 21.7904 3.65397 22.168 4.07714C22.5456 4.50032 22.7344 5.05045 22.7344 5.72754L22.7344 6.03027L19.0918 6.03027C19.1048 6.60319 19.2431 7.04752 19.5068 7.36329C19.7705 7.67904 20.1334 7.83691 20.5957 7.83691C21.0775 7.83691 21.4226 7.7002 21.6309 7.42675C21.7546 7.25749 21.8164 7.08496 21.8164 6.90918L22.6465 6.90918C22.6465 7.19563 22.5456 7.48209 22.3437 7.76855C21.9922 8.26986 21.4095 8.5205 20.5957 8.5205C19.8796 8.5205 19.3099 8.28288 18.8867 7.80761L18.8867 7.80761ZM87.6416 7.80761C87.2184 7.33236 87.0068 6.71387 87.0068 5.95214C87.0068 5.19043 87.2119 4.58171 87.6221 4.12598C88.0322 3.67025 88.5954 3.44239 89.3115 3.44239C90.0081 3.44239 90.5452 3.65397 90.9228 4.07714C91.3005 4.50032 91.4893 5.05045 91.4893 5.72754L91.4893 6.03027L87.8467 6.03027C87.8597 6.60319 87.998 7.04752 88.2617 7.36329C88.5254 7.67904 88.8883 7.83691 89.3506 7.83691C89.8323 7.83691 90.1774 7.7002 90.3857 7.42675C90.5094 7.25749 90.5713 7.08496 90.5713 6.90918L91.4014 6.90918C91.4014 7.19563 91.3005 7.48209 91.0986 7.76855C90.7471 8.26986 90.1644 8.5205 89.3506 8.5205C88.6345 8.5205 88.0648 8.28288 87.6416 7.80761L87.6416 7.80761ZM97.7588 7.79786C97.3551 7.31608 97.1533 6.70084 97.1533 5.95214C97.1533 5.20345 97.3535 4.59798 97.7539 4.13575C98.1543 3.6735 98.6703 3.44239 99.3018 3.44239C99.9335 3.44239 100.435 3.74186 100.805 4.34082L100.883 3.54004L101.567 3.54004L101.567 8.42286L100.883 8.42286L100.795 7.59277C100.418 8.21126 99.9202 8.5205 99.3018 8.5205C98.6768 8.5205 98.1625 8.27962 97.7588 7.79786L97.7588 7.79786ZM103.618 3.54004L102.934 3.54004L102.934 8.42286L103.715 8.42286L103.715 5.65918C103.729 5.29459 103.856 4.94792 104.096 4.61914C104.338 4.29037 104.67 4.12598 105.092 4.12598C105.561 4.12598 105.903 4.27409 106.118 4.57032C106.333 4.86654 106.444 5.2067 106.45 5.59082L106.45 8.42286L107.231 8.42286L107.231 5.59082C107.231 4.92676 107.059 4.40267 106.713 4.01855C106.369 3.63444 105.89 3.44239 105.278 3.44239C104.621 3.44239 104.094 3.74837 103.696 4.36036L103.618 3.54004L103.618 3.54004ZM123.315 6.83105L122.485 6.83105C122.485 7.28678 122.659 7.68229 123.007 8.01757C123.356 8.35286 123.866 8.5205 124.536 8.5205C125.076 8.5205 125.521 8.3903 125.869 8.12988C126.217 7.86946 126.391 7.52767 126.391 7.1045C126.391 6.81152 126.32 6.56901 126.176 6.37695C126.034 6.18489 125.853 6.0498 125.634 5.97168C125.416 5.89355 125.182 5.82032 124.931 5.75195C124.681 5.68359 124.446 5.625 124.228 5.57618C124.01 5.52734 123.83 5.4427 123.686 5.32227C123.543 5.20182 123.471 5.0472 123.471 4.85839C123.471 4.63704 123.556 4.45963 123.725 4.32618C123.895 4.19271 124.113 4.12598 124.379 4.12598C124.705 4.12598 124.972 4.222 125.18 4.41407C125.389 4.60612 125.493 4.84538 125.493 5.13184L126.323 5.13184C126.323 4.67611 126.159 4.2806 125.83 3.94532C125.502 3.61003 125.018 3.44239 124.379 3.44239C123.872 3.44239 123.454 3.57259 123.125 3.833C122.796 4.09343 122.631 4.43522 122.631 4.85839C122.631 5.20345 122.732 5.48014 122.934 5.68848C123.136 5.89681 123.379 6.04329 123.662 6.12793C123.946 6.21257 124.23 6.28743 124.516 6.35254C124.803 6.41764 125.047 6.50716 125.249 6.62109C125.451 6.73503 125.551 6.89616 125.551 7.1045C125.551 7.32585 125.457 7.50325 125.268 7.63671C125.08 7.77018 124.836 7.83691 124.536 7.83691C124.178 7.83691 123.885 7.74088 123.657 7.54882C123.429 7.35677 123.315 7.11752 123.315 6.83105L123.315 6.83105ZM26.5918 3.54004L25.8594 3.54004L27.0312 8.42286L27.8125 8.42286L28.9551 4.76075L30.0586 8.42286L30.8398 8.42286L32.0117 3.54004L31.2793 3.54004L30.3711 7.17286L29.2871 3.54004L28.6328 3.54004L27.5 7.20214L26.5918 3.54004L26.5918 3.54004ZM32.8906 8.42286L32.8906 3.54004L33.8906 3.54004L33.8906 8.42286L32.8906 8.42286L32.8906 8.42286ZM71.3818 3.54004L70.5029 3.54004L72.5244 8.31543C72.2575 9.01205 71.8799 9.36036 71.3916 9.36036L70.9424 9.36036L70.9424 10.1514L71.4209 10.1514C71.9157 10.1514 72.2966 10.0179 72.5635 9.75098C72.8304 9.48405 73.0908 9.04134 73.3447 8.42286L73.3643 8.37402L75.1904 3.54004L74.3603 3.54004L72.9443 7.47559L71.3818 3.54004L71.3818 3.54004ZM93.8232 5.97168L92.1728 8.42286L93.0908 8.42286L94.3018 6.53809L95.4932 8.42286L96.4697 8.42286L94.8193 5.97168L96.3916 3.54004L95.5225 3.54004L94.3701 5.50293L93.1201 3.54004L92.251 3.54004L93.8232 5.97168L93.8232 5.97168ZM114.672 3.54004L113.989 3.54004L113.989 8.42286L114.77 8.42286L114.77 5.86425C114.796 4.77051 115.252 4.22364 116.137 4.22364L116.333 4.22364L116.333 3.54004L116.137 3.54004C115.519 3.54004 115.054 3.78743 114.741 4.28223L114.672 3.54004L114.672 3.54004ZM117.114 6.37207L117.114 3.54004L117.895 3.54004L117.895 6.34277C117.895 6.7334 117.995 7.08008 118.193 7.38282C118.392 7.68555 118.713 7.83691 119.155 7.83691C119.605 7.83691 119.958 7.6595 120.214 7.30468C120.472 6.94987 120.61 6.58692 120.629 6.21582L120.629 3.54004L121.411 3.54004L121.411 8.42286L120.727 8.42286L120.639 7.53418C120.223 8.19173 119.666 8.5205 118.969 8.5205C118.39 8.5205 117.936 8.32845 117.607 7.94434C117.279 7.56022 117.114 7.03614 117.114 6.37207L117.114 6.37207ZM8.50098 4.62402C8.24382 4.95606 8.11523 5.39877 8.11523 5.95214C8.11523 6.50553 8.24382 6.95801 8.50098 7.30957C8.75814 7.66114 9.10155 7.83691 9.5312 7.83691C9.94788 7.83691 10.2783 7.6709 10.5225 7.33886C10.7666 7.00684 10.8952 6.57389 10.9082 6.04004L10.9082 5.95214C10.9082 5.39877 10.7861 4.95606 10.542 4.62402C10.2979 4.29199 9.96094 4.12598 9.5312 4.12598C9.10155 4.12598 8.75814 4.29199 8.50098 4.62402L8.50098 4.62402ZM13.6035 5.95214C13.6035 5.39877 13.7321 4.95606 13.9893 4.62402C14.2464 4.29199 14.5898 4.12598 15.0195 4.12598C15.4492 4.12598 15.7862 4.29199 16.0303 4.62402C16.2744 4.95606 16.3965 5.39877 16.3965 5.95214C16.3965 6.51205 16.2728 6.96615 16.0254 7.31445C15.778 7.66276 15.4427 7.83691 15.0195 7.83691C14.5898 7.83691 14.2464 7.66114 13.9893 7.30957C13.7321 6.95801 13.6035 6.50553 13.6035 5.95214L13.6035 5.95214ZM19.1309 5.3955L21.8848 5.3955C21.8717 5.02441 21.7594 4.72005 21.5478 4.48243C21.3363 4.24479 21.0059 4.12598 20.5566 4.12598C20.1269 4.12598 19.7851 4.24968 19.5312 4.49707C19.2773 4.74447 19.1439 5.04395 19.1309 5.3955L19.1309 5.3955ZM66.2842 5.98145C66.2842 6.52181 66.3998 6.96615 66.6309 7.31445C66.862 7.66276 67.2054 7.83691 67.6611 7.83691C68.0713 7.83691 68.4099 7.66439 68.6768 7.31934C68.9437 6.97428 69.0771 6.52832 69.0771 5.98145C69.0771 5.42806 68.9485 4.98047 68.6914 4.63868C68.4343 4.29688 68.0908 4.12598 67.6611 4.12598C67.2249 4.12598 66.8896 4.30339 66.6553 4.6582C66.4209 5.01302 66.2972 5.43131 66.2842 5.91309L66.2842 5.98145L66.2842 5.98145ZM87.8857 5.3955L90.6396 5.3955C90.6266 5.02441 90.5143 4.72005 90.3027 4.48243C90.0911 4.24479 89.7607 4.12598 89.3115 4.12598C88.8818 4.12598 88.54 4.24968 88.2861 4.49707C88.0322 4.74447 87.8988 5.04395 87.8857 5.3955L87.8857 5.3955ZM98.3789 4.62402C98.1218 4.95606 97.9932 5.39877 97.9932 5.95214C97.9932 6.50553 98.1218 6.95801 98.3789 7.30957C98.636 7.66114 98.9795 7.83691 99.4094 7.83691C99.8261 7.83691 100.156 7.6709 100.4 7.33886C100.644 7.00684 100.773 6.57389 100.786 6.04004L100.786 5.95214C100.786 5.39877 100.664 4.95606 100.42 4.62402C100.176 4.29199 99.8387 4.12598 99.4094 4.12598C98.9795 4.12598 98.636 4.29199 98.3789 4.62402L98.3789 4.62402ZM109.433 4.62402C109.176 4.95606 109.047 5.39877 109.047 5.95214C109.047 6.50553 109.176 6.95801 109.433 7.30957C109.691 7.66114 110.034 7.83691 110.463 7.83691C110.887 7.83691 111.222 7.66276 111.469 7.31445C111.717 6.96615 111.84 6.51205 111.84 5.95214C111.84 5.39877 111.718 4.95606 111.474 4.62402C111.23 4.29199 110.893 4.12598 110.463 4.12598C110.034 4.12598 109.691 4.29199 109.433 4.62402L109.433 4.62402Z" id="Shape" fill="#FFFFFF" fill-rule="evenodd" stroke="none" />
            </g>
            <path d="M47.7 26.6C38.04 20.86 22.1 20.33 12.88 23.13C11.4 23.58 9.84 22.73 9.38 21.26C8.94 19.78 9.78 18.21 11.25 17.76C21.85 14.54 39.45 15.16 50.57 21.76C51.91 22.56 52.34 24.29 51.55 25.62C50.75 26.98 49.05 27.42 47.72 26.62L47.7 26.6L47.7 26.6ZM44.18 35.87C36.13 30.91 23.84 29.47 14.31 32.37C13.11 32.75 11.81 32.05 11.41 30.82C11.11 29.58 11.71 28.28 13.01 27.9C23.91 24.6 37.41 26.2 46.71 31.9C47.81 32.57 48.21 34 47.51 35.1C46.81 36.2 45.38 36.55 44.28 35.87L44.18 35.87L44.18 35.87ZM41.16 43.89C34.11 39.59 25.26 38.59 14.82 40.99C13.82 41.19 12.82 40.59 12.59 39.59C12.29 38.59 12.89 37.59 13.99 37.29C25.39 34.69 35.19 35.79 43.09 40.59C43.99 41.09 44.19 42.19 43.69 43.09C43.19 44.09 41.99 44.33 41.09 43.79L41.16 43.89L41.16 43.89ZM29.98 0C13.42 0 0 13.43 0 30C0 46.57 13.42 60 29.98 60C46.54 60 59.96 46.57 59.96 30C59.96 13.44 46.54 0 29.98 0M81.56 27.73C76.38 26.48 75.46 25.63 75.46 23.79C75.46 21.99 77.08 20.89 79.49 20.89C81.79 20.89 84.09 21.79 86.49 23.59C86.59 23.59 86.69 23.69 86.79 23.59C86.89 23.59 86.89 23.49 86.99 23.39L89.49 19.79C89.59 19.59 89.49 19.39 89.39 19.29C86.49 16.99 83.19 15.79 79.39 15.79C73.79 15.79 69.89 19.09 69.89 23.89C69.89 28.99 73.29 30.89 79.09 32.29C83.99 33.49 84.89 34.49 84.89 36.19C84.89 38.09 83.19 39.19 80.49 39.19C77.49 39.19 74.99 38.19 72.19 35.79C72.09 35.69 71.99 35.69 71.89 35.69C71.79 35.69 71.69 35.69 71.69 35.79L69.1 39.5C69 39.6 69 39.82 69.14 39.92C72.34 42.78 76.24 44.28 80.54 44.28C86.54 44.28 90.44 40.98 90.44 35.9C90.44 31.6 87.84 29.23 81.54 27.7M102.84 39.68C99.64 39.68 97.24 37.05 97.24 33.48C97.24 29.98 99.64 27.34 102.79 27.34C105.89 27.34 108.19 29.94 108.19 33.54C108.24 37.14 105.94 39.68 102.74 39.68L102.84 39.68L102.84 39.68ZM97.44 25.76L97.44 23.36C97.44 23.16 97.24 23.02 97.04 23.02L92.5 23.02C92.33 23.02 92.17 23.16 92.17 23.36L92.17 49.66C92.17 49.86 92.27 50.01 92.47 50.01L97.07 50.01C97.27 50.01 97.37 49.91 97.37 49.71L97.37 41.41C99.11 43.41 101.27 44.41 103.87 44.41C108.7 44.41 113.6 40.71 113.6 33.51C113.6 26.41 108.7 22.61 103.9 22.61C101.34 22.61 99.14 23.71 97.44 25.81L97.44 25.76L97.44 25.76ZM120.3 33.41C120.3 29.81 122.8 27.21 126.1 27.21C129.4 27.21 132 29.81 132 33.41C132 37.01 129.58 39.51 126.2 39.61C122.8 39.71 120.3 37.01 120.3 33.51L120.3 33.41L120.3 33.41ZM115 33.41C115 39.41 119.8 44.21 126 44.21C132.2 44.21 137.1 39.41 137.1 33.31C137.1 27.21 132.2 22.41 126.08 22.51C119.88 22.61 114.98 27.41 114.98 33.51L115 33.41L115 33.41ZM150.4 22.81L145.4 22.81L145.4 17.61C145.4 17.41 145.2 17.21 145 17.21L140.5 17.21C140.3 17.21 140.15 17.31 140.15 17.51L140.15 22.71L137.91 22.71C137.81 22.71 137.61 22.81 137.61 23.01L137.61 27.01C137.61 27.21 137.81 27.31 138.01 27.31L140.31 27.31L140.31 37.71C140.31 41.81 142.31 43.91 146.41 43.91C148.11 43.91 149.51 43.61 150.81 42.91C150.91 42.81 151.01 42.71 151.01 42.61L151.01 38.81C151.01 38.71 151.01 38.51 150.91 38.51C150.81 38.41 150.61 38.41 150.51 38.51C149.61 38.91 148.81 39.11 147.81 39.11C146.31 39.11 145.71 38.41 145.71 36.91L145.71 27.5L150.81 27.5C151.01 27.5 151.11 27.37 151.11 27.2L151.11 23.2C151.11 23 150.91 22.87 150.81 22.87M168.59 22.91L168.59 22.31C168.59 20.41 169.29 19.61 170.93 19.61C171.86 19.61 172.63 19.81 173.53 20.11C173.63 20.21 173.73 20.11 173.83 20.11C173.93 20.11 173.93 20.01 173.93 19.81L173.93 15.91C173.93 15.81 173.83 15.61 173.67 15.61C172.74 15.31 171.57 15.01 169.81 15.01C165.51 15.01 163.25 17.41 163.25 22.01L163.25 23.01L161.01 23.01C160.81 23.01 160.71 23.11 160.71 23.31L160.71 27.31C160.71 27.51 160.85 27.71 161.01 27.71L163.21 27.71L163.21 43.71C163.21 43.91 163.41 44.01 163.61 44.01L168.27 44.01C168.47 44.01 168.61 43.91 168.61 43.71L168.61 27.71L172.91 27.71L179.61 43.61C178.86 45.31 178.11 45.61 177.11 45.61C176.31 45.61 175.41 45.41 174.56 44.91L174.26 44.91C174.16 44.91 174.16 45.01 174.06 45.11L172.5 48.5C172.43 48.7 172.5 48.88 172.65 48.96C174.28 49.86 175.75 50.24 177.59 50.24C180.99 50.24 182.89 48.64 184.49 44.36L192.49 23.56C192.49 23.46 192.49 23.34 192.39 23.26C192.29 23.16 192.19 23.1 192.09 23.1L187.5 23.1C187.37 23.1 187.23 23.2 187.2 23.32L182.28 37.42L176.86 23.28C176.81 23.18 176.68 23.06 176.54 23.06L168.62 23.06M153.68 23.06C153.48 23.06 153.34 23.2 153.34 23.42L153.34 43.62C153.34 43.79 153.49 43.94 153.68 43.94L158.33 43.94C158.55 43.94 158.69 43.8 158.69 43.61L158.69 23.4C158.69 23.2 158.49 23.06 158.29 23.06L153.68 23.06L153.68 23.06ZM152.68 17.16C152.68 19.04 154.18 20.51 155.98 20.51C157.78 20.51 159.28 19.11 159.28 17.21C159.28 15.41 157.78 13.91 155.94 13.91C154.19 13.91 152.69 15.41 152.69 17.21L152.68 17.16L152.68 17.16ZM195.58 25.11L195.58 26.21L196.48 26.21C196.88 26.21 197.18 26.01 197.18 25.71C197.18 25.41 197.12 25.11 196.58 25.11L195.58 25.11L195.58 25.11ZM197.08 26.71L197.98 28.01L197.28 28.01L196.38 26.81L195.58 26.81L195.58 28.01L194.91 28.01L194.91 24.5L196.51 24.5C197.31 24.5 197.81 24.9 197.81 25.6C197.81 26.14 197.51 26.47 197.01 26.62L197.08 26.71L197.08 26.71ZM193.5 26.5C193.5 28.1 194.7 29.4 196.4 29.4C198.1 29.4 199.3 28.1 199.3 26.5C199.3 24.9 198 23.6 196.36 23.56C194.7 23.5 193.5 24.9 193.5 26.5L193.5 26.5L193.5 26.5ZM193.1 26.5C193.1 24.7 194.26 23.16 196.36 23.17C198.39 23.17 199.71 24.71 199.71 26.51C199.71 28.31 198.21 29.91 196.41 29.91C194.51 29.91 193.11 28.41 193.11 26.61L193.1 26.5L193.1 26.5Z" id="Shape" fill="#FFFFFF" fill-rule="evenodd" stroke="none" />
          </g>
        </g>
      </g>
    </g>
  </g>
</svg>