<svg id="Слой_1" data-name="Слой 1" xmlns="http://www.w3.org/2000/svg" width="1000" height="400" viewBox="0 0 1000 400"><path d="M89.74,176.75c-24-5.72-28.27-9.73-28.27-18.17,0-8,7.51-13.34,18.67-13.34,10.83,0,21.56,4.07,32.81,12.46a1.6,1.6,0,0,0,1.18.29,1.62,1.62,0,0,0,1-.64l11.72-16.52a1.58,1.58,0,0,0-.3-2.14c-13.39-10.74-28.47-16-46.09-16-25.91,0-44,15.55-44,37.79,0,23.86,15.61,32.31,42.59,38.83,23,5.29,26.84,9.72,26.84,17.64,0,8.78-7.84,14.24-20.45,14.24-14,0-25.43-4.72-38.21-15.79a1.64,1.64,0,0,0-1.16-.37,1.52,1.52,0,0,0-1.07.55L31.89,231.26a1.57,1.57,0,0,0,.15,2.18,78.35,78.35,0,0,0,52.9,20.28c27.92,0,46-15.25,46-38.86,0-19.94-11.89-31-41.12-38.08l-.05,0Z" style="fill:#2ebd59"/><path d="M190.77,151.55h0c-11.64,0-21.26,4.41-29.26,13.44a.54.54,0,0,1-.95-.35v-9a2.11,2.11,0,0,0-2.11-2.11H138a2.11,2.11,0,0,0-2.11,2.11V276.71a2.12,2.12,0,0,0,2.12,2.12h20.4a2.12,2.12,0,0,0,2.11-2.11V240.07a.53.53,0,0,1,.93-.36,38.43,38.43,0,0,0,29.28,12.66c22.49,0,45.26-17.31,45.26-50.4S213.26,151.55,190.77,151.55ZM211,202c0,16.85-10.38,28.61-25.24,28.61-14.7,0-25.78-12.3-25.78-28.61s11.08-28.61,25.78-28.61S211,185.39,211,202Z" style="fill:#2ebd59"/><path d="M296.89,187.45a14.41,14.41,0,1,0,14.38,14.79A14.18,14.18,0,0,0,296.89,187.45Z" style="fill:none"/><path d="M332,201.16a35.32,35.32,0,0,0-4.1-15.91c-1.14-2.16-.91-3.84.89-5.5,2.33-2.14,4.54-4.42,6.79-6.64l-10-9.73c-1.93,2-4.1,4.22-6.16,6.52-1.77,2-3.59,2.36-6,1a32.38,32.38,0,0,0-15-4.08c-2.71-.1-4.08-1.35-4.67-3.9-.66-2.91-1.52-5.78-2.39-9.06l-13.32,3.65c.84,3.23,1.46,6.15,2.36,9,.85,2.65,0,4.19-2.11,6a104.56,104.56,0,0,0-10.84,10.83c-1.69,1.95-3.1,3-5.7,2.17-3-.94-6.07-1.59-9.27-2.41-1.2,4.53-2.32,8.74-3.46,13.08,3.24.87,6.1,1.76,9,2.39,2.61.57,3.88,2,3.92,4.67A33.53,33.53,0,0,0,266,218.52c1.22,2.25.77,4-1.1,5.73-2.27,2.07-4.4,4.3-6.24,6.11l10,9.87c1.93-2,4.14-4.34,6.29-6.69,1.64-1.8,3.32-1.7,5.55-.93a112.37,112.37,0,0,0,14.47,4.1c4.14.82,4.48.71,5.61,4.95.71,2.67,1.46,5.33,2.24,8.14l13-3.56c-.89-3.43-1.59-6.54-2.51-9.57s.59-4.71,3.88-5.94a14,14,0,0,0,8.4-8.18c1.38-3.81,3.24-5.23,6.33-4.3s6.24,1.63,9.47,2.46c1.2-4.53,2.31-8.74,3.45-13.08-3.53-.95-6.68-1.82-9.84-2.63A3.66,3.66,0,0,1,332,201.16Zm-35.18,22.13a21.31,21.31,0,1,1,21.48-21.14A21.2,21.2,0,0,1,296.84,223.29Z" style="fill:none"/><path d="M344.88,200.68c-4.56-.75-7.05-2.57-7.25-7.54-.11-2.62-1.63-5.15-2.24-7.78a4,4,0,0,1,.64-3.08c1.88-2.2,4.07-4.15,6.09-6.23,2.31-2.37,2.32-3.83,0-6.22q-6.52-6.6-13.13-13.13c-2.21-2.17-4-2.12-6.31.1-2.09,2-4,4.19-6.23,6.1a3.71,3.71,0,0,1-2.85.58c-4-.92-8-2-11.9-3.15a3.77,3.77,0,0,1-2.17-2c-.87-2.46-1.23-5.12-2.18-7.54a14.56,14.56,0,0,0-2.21-3.4l-3.27-1.06-15.48,4.54c-1,.29-2,.48-3,.78a4,4,0,0,0-2.74,4.74c.74,3,1.69,6,2.26,9a4,4,0,0,1-1,3q-4.1,4.41-8.51,8.51a4,4,0,0,1-3,1c-2.75-.51-5.42-1.43-8.15-2.1-3.49-.87-4.82,0-5.75,3.4-1.31,4.89-2.59,9.78-3.93,14.66a28.07,28.07,0,0,1-1.16,2.86l1.54,4a21.6,21.6,0,0,0,6,2.48c4.58.73,7,2.58,7.25,7.53.11,2.62,1.62,5.15,2.24,7.78a3.93,3.93,0,0,1-.63,3.06c-1.88,2.21-4.06,4.15-6.09,6.24-2.26,2.32-2.37,3.79-.18,6,4.61,4.66,9.32,9.24,14,13.85,1.74,1.72,3.52,1.56,5.2,0,2.23-2.14,4.31-4.45,6.63-6.48a3.8,3.8,0,0,1,2.94-.78c4,.9,8,2,12,3.17a3.7,3.7,0,0,1,2.14,2c.86,2.37,1.28,4.9,2.11,7.28a25.49,25.49,0,0,0,1.91,3.8l2.49,1q9.26-2.61,18.5-5.2c3.77-1,4.51-2.31,3.53-6.14-.77-3-2.64-6.21-2-8.87.57-2.48,4.1-4.28,6.14-6.43a7.41,7.41,0,0,0,.72-1c2.54-4.54,6.19-4.33,10.81-2.82a7.38,7.38,0,0,0,9.46-5.11c1.43-5.18,2.93-10.36,4.39-15.53l-1.4-3.22C349,202.21,347,201,344.88,200.68Zm-3.45,20c-3.23-.83-6.38-1.53-9.47-2.46s-4.95.49-6.33,4.3a14,14,0,0,1-8.4,8.18c-3.29,1.23-4.77,3-3.88,5.94s1.62,6.14,2.51,9.57l-13,3.56c-.78-2.81-1.53-5.47-2.24-8.14-1.13-4.24-1.47-4.13-5.61-4.95a112.37,112.37,0,0,1-14.47-4.1c-2.23-.77-3.91-.87-5.55.93-2.15,2.35-4.36,4.64-6.29,6.69l-10-9.87c1.84-1.81,4-4,6.24-6.11,1.87-1.7,2.32-3.48,1.1-5.73A33.53,33.53,0,0,1,262,203.21c0-2.7-1.31-4.1-3.92-4.67-2.91-.63-5.77-1.52-9-2.39,1.14-4.34,2.26-8.55,3.46-13.08,3.2.82,6.28,1.47,9.27,2.41,2.6.81,4-.22,5.7-2.17a104.56,104.56,0,0,1,10.84-10.83c2.08-1.79,3-3.33,2.11-6-.9-2.83-1.52-5.75-2.36-9l13.32-3.65c.87,3.28,1.73,6.15,2.39,9.06.59,2.55,2,3.8,4.67,3.9a32.38,32.38,0,0,1,15,4.08c2.38,1.35,4.2,1,6-1,2.06-2.3,4.23-4.49,6.16-6.52l10,9.73c-2.25,2.22-4.46,4.5-6.79,6.64-1.8,1.66-2,3.34-.89,5.5a35.32,35.32,0,0,1,4.1,15.91,3.66,3.66,0,0,0,3,3.84c3.16.81,6.31,1.68,9.84,2.63C343.74,212,342.63,216.18,341.43,220.71Z" style="fill:#2ebd59"/><path d="M297.23,180.67a21.31,21.31,0,1,0-.39,42.62,21.31,21.31,0,0,0,.39-42.62Zm-.84,35.59a14.41,14.41,0,1,1,14.88-14A14.26,14.26,0,0,1,296.39,216.26Z" style="fill:#2ebd59"/><path d="M608,158.16q7.95-4.71,18.93-4.7,15.9,0,24.87,9.59t9,27.33V249a2.93,2.93,0,0,1-2.93,2.93H641.39a2.93,2.93,0,0,1-2.93-2.93V197.27q0-11.49-5.1-17.51t-14.37-6a19.43,19.43,0,0,0-14.83,6.11q-5.73,6.12-5.73,17.78V249A2.93,2.93,0,0,1,595.5,252H579.07a2.94,2.94,0,0,1-2.94-2.93V197.09q0-11.31-5.09-17.33t-14.38-6q-9.27,0-14.92,6.39t-5.64,17.68V249a2.93,2.93,0,0,1-2.93,2.93H516.74A2.94,2.94,0,0,1,513.8,249V158.4a2.94,2.94,0,0,1,2.94-2.93h16.43a2.93,2.93,0,0,1,2.93,2.93v3.69a2.91,2.91,0,0,0,5.06,1.94l.06-.06a35.44,35.44,0,0,1,6.3-5.35,30.08,30.08,0,0,1,8-3.78,33.66,33.66,0,0,1,10-1.38q10.41,0,17.63,4.7a31,31,0,0,1,9,8.89,2.93,2.93,0,0,0,4.63.4A46.65,46.65,0,0,1,608,158.16Z" style="fill:#2ebd59"/><path d="M674.5,139.05v-17.8a1.61,1.61,0,0,1,1.61-1.61h20.72a1.61,1.61,0,0,1,1.61,1.61v17.8a1.61,1.61,0,0,1-1.61,1.61H676.11A1.61,1.61,0,0,1,674.5,139.05Zm.91,111.31V157.08a1.61,1.61,0,0,1,1.61-1.61H696.1a1.61,1.61,0,0,1,1.61,1.61v93.28A1.61,1.61,0,0,1,696.1,252H677A1.61,1.61,0,0,1,675.41,250.36Z" style="fill:#2ebd59"/><path d="M714,170.79V158.24a2.77,2.77,0,0,1,2.77-2.77h76.35a2.77,2.77,0,0,1,2.77,2.77v11.35a2.77,2.77,0,0,1-.69,1.83l-51,57.86a2.77,2.77,0,0,0,2.07,4.6h46.85a2.77,2.77,0,0,1,2.77,2.77V249.2a2.77,2.77,0,0,1-2.77,2.77H714.8A2.77,2.77,0,0,1,712,249.2V237.85a2.79,2.79,0,0,1,.69-1.83l51-57.86a2.77,2.77,0,0,0-2.07-4.6H716.81A2.77,2.77,0,0,1,714,170.79Z" style="fill:#2ebd59"/><path d="M836.81,228.66a27.42,27.42,0,0,0,18.27,6.3A32.35,32.35,0,0,0,869.34,232a43.66,43.66,0,0,0,9.73-6.61,3.32,3.32,0,0,1,4.39,0l8.23,7.31a3.31,3.31,0,0,1,.21,4.77,53.2,53.2,0,0,1-14.24,10.61q-9.6,4.94-22.94,4.94a51.41,51.41,0,0,1-19.47-3.66,46.66,46.66,0,0,1-26.23-26,53.09,53.09,0,0,1-3.84-20.57,54.46,54.46,0,0,1,3.48-19.55,48.9,48.9,0,0,1,9.78-16,47.1,47.1,0,0,1,14.89-10.87,44.33,44.33,0,0,1,19-4,45.88,45.88,0,0,1,20.2,4.2A41.61,41.61,0,0,1,887,167.88a49.13,49.13,0,0,1,8.68,16.64,67.28,67.28,0,0,1,2.92,19.92c0,1,0,1.95-.09,2.92v0a3.31,3.31,0,0,1-3.31,3.08H831.44a3.32,3.32,0,0,0-3.21,4.2A27.23,27.23,0,0,0,836.81,228.66Zm36-32.81a3.33,3.33,0,0,0,3.25-4,36.38,36.38,0,0,0-1.76-5.94,25.44,25.44,0,0,0-4.93-8,23.49,23.49,0,0,0-7.4-5.39,22.86,22.86,0,0,0-9.78-2,22.3,22.3,0,0,0-16.91,7,30.21,30.21,0,0,0-7.41,14.31,3.32,3.32,0,0,0,3.24,4.06Z" style="fill:#2ebd59"/><path d="M932.57,253.08H913.74a1.73,1.73,0,0,1-1.74-1.73v-93a1.73,1.73,0,0,1,1.74-1.73h18.83a1.72,1.72,0,0,1,1.73,1.73V171a1.73,1.73,0,0,0,3.23.87,40.57,40.57,0,0,1,9.75-11.12q7.85-6.14,19.51-6.07a1.72,1.72,0,0,1,1.69,1.73v21.7H967.2a36.19,36.19,0,0,0-13.34,2.38,28,28,0,0,0-10.42,7.13,32.24,32.24,0,0,0-6.76,12,53.67,53.67,0,0,0-2.38,16.72v35A1.72,1.72,0,0,1,932.57,253.08Z" style="fill:#2ebd59"/><path d="M411,154.07H387.33V129.89a1.57,1.57,0,0,0-1.56-1.57H364.28a1.57,1.57,0,0,0-1.57,1.57v24.18H352.37a1.56,1.56,0,0,0-1.56,1.57v18.47a1.56,1.56,0,0,0,1.56,1.57h10.34v47.79c0,19.31,9.61,29.1,28.56,29.1a39.15,39.15,0,0,0,20.13-5,1.55,1.55,0,0,0,.79-1.36V228.61a1.57,1.57,0,0,0-2.27-1.41,27.13,27.13,0,0,1-12.62,3.05c-6.89,0-10-3.13-10-10.15V175.69H411a1.57,1.57,0,0,0,1.57-1.57V155.65a1.52,1.52,0,0,0-1.55-1.57Z" style="fill:#2ebd59"/><path d="M463.32,253.31a82.15,82.15,0,0,1-6,12.61,33.28,33.28,0,0,1-7,8.32,25,25,0,0,1-8.41,4.66,34.28,34.28,0,0,1-10.42,1.46,44.37,44.37,0,0,1-12.33-1.57,53.29,53.29,0,0,1-7.45-2.8,3.49,3.49,0,0,1-1.68-4.6l4.65-10.29a3.51,3.51,0,0,1,4.59-1.74q1.57.66,3.18,1.17a22.4,22.4,0,0,0,6.67,1,12.6,12.6,0,0,0,7.86-2.37q2.73-2.09,5.18-7.28a3.53,3.53,0,0,0,.08-2.88l-37.61-90.11a3.49,3.49,0,0,1,3.23-4.83h15.93a3.49,3.49,0,0,1,3.26,2.24l23.15,60.5a3.49,3.49,0,0,0,6.56-.1l21.07-60.3a3.5,3.5,0,0,1,3.3-2.34h15.46a3.49,3.49,0,0,1,3.25,4.75Z" style="fill:#2ebd59"/></svg>